<svg data-v-6d47a7f4="" role="figure" xmlns="http://www.w3.org/2000/svg" viewBox="0 0 586 559" aria-label="Gitlab logo"><g data-v-6d47a7f4="" id="g44"><path data-v-6d47a7f4="" fill="#444444" d="M461.17,301.83l-18.91-58.12L404.84,128.43a6.47,6.47,0,0,0-12.27,0L355.15,243.64H230.82L193.4,128.43a6.46,6.46,0,0,0-12.26,0L143.78,243.64l-18.91,58.19a12.88,12.88,0,0,0,4.66,14.39L293,435,456.44,316.22a12.9,12.9,0,0,0,4.73-14.39"></path></g><g data-v-6d47a7f4="" id="g48"><path data-v-6d47a7f4="" fill="black" d="M293,434.91h0l62.16-191.28H230.87L293,434.91Z"></path></g><g data-v-6d47a7f4="" id="g56"><path data-v-6d47a7f4="" fill="#444444" d="M293,434.91,230.82,243.63h-87L293,434.91Z"></path></g><g data-v-6d47a7f4="" id="g64"><path data-v-6d47a7f4="" fill="black" d="M143.75,243.69h0l-18.91,58.12a12.88,12.88,0,0,0,4.66,14.39L293,435,143.75,243.69Z"></path></g><g data-v-6d47a7f4="" id="g72"><path data-v-6d47a7f4="" fill="black" d="M143.78,243.69h87.11L193.4,128.49a6.47,6.47,0,0,0-12.27,0l-37.35,115.2Z"></path></g><g data-v-6d47a7f4="" id="g76"><path data-v-6d47a7f4="" fill="#444444" d="M293,434.91l62.16-191.28H442.3L293,434.91Z"></path></g><g data-v-6d47a7f4="" id="g80"><path data-v-6d47a7f4="" fill="black" d="M442.24,243.69h0l18.91,58.12a12.85,12.85,0,0,1-4.66,14.39L293,434.91l149.2-191.22Z"></path></g><g data-v-6d47a7f4="" id="g84"><path data-v-6d47a7f4="" fill="black" d="M442.28,243.69h-87.1l37.42-115.2a6.46,6.46,0,0,1,12.26,0l37.42,115.2Z"></path></g></svg>
